<?xml version="1.0" encoding="utf-8"?>
<!-- Generator: Adobe Illustrator 24.0.1, SVG Export Plug-In . SVG Version: 6.00 Build 0)  -->
<svg version="1.1" id="Layer_1" xmlns="http://www.w3.org/2000/svg" xmlns:xlink="http://www.w3.org/1999/xlink" x="0px" y="0px"
	 viewBox="0 0 15 11" style="enable-background:new 0 0 15 11;" xml:space="preserve">
<style type="text/css">
	.st0{fill:#FFFFFF;}
</style>
<path id="gmail" class="st0" d="M13,0H2H0v1v9v1h2h11h2v-1V1V0H13z M12,1v1h-1v1h-1v1H9v1H8v1H7V5H6V4H5V3H4V2H3V1H12z M2,10V3h1v1
	h1v1h1v1h1v1h1v1h1V7h1V6h1V5h1V4h1V3h1v7H2z"/>
</svg>
