<?xml version="1.0" encoding="utf-8"?>
<!-- Generator: Adobe Illustrator 24.0.1, SVG Export Plug-In . SVG Version: 6.00 Build 0)  -->
<svg version="1.1" id="Layer_1" xmlns="http://www.w3.org/2000/svg" xmlns:xlink="http://www.w3.org/1999/xlink" x="0px" y="0px"
	 viewBox="0 0 150 110" style="enable-background:new 0 0 150 110;" xml:space="preserve">
<style type="text/css">
	.st0{fill:#FFFFFF;}
</style>
<path class="st0" d="M130,0H20H0v10v90v10h20h110h20v-10V10V0H130z M120,10v10h-10v10h-10v10H90v10H80v10H70V50H60V40H50V30H40V20
	H30V10H120z M20,100V30h10v10h10v10h10v10h10v10h10v10h10V70h10V60h10V50h10V40h10V30h10v70H20z"/>
</svg>
