<?xml version="1.0" encoding="utf-8"?>
<!-- Generator: Adobe Illustrator 24.0.1, SVG Export Plug-In . SVG Version: 6.00 Build 0)  -->
<svg version="1.1" id="Layer_1" xmlns="http://www.w3.org/2000/svg" xmlns:xlink="http://www.w3.org/1999/xlink" x="0px" y="0px"
	 viewBox="0 0 69 10" style="enable-background:new 0 0 69 10;" xml:space="preserve">
<style type="text/css">
	.st0{fill:#FFFFFF;}
</style>
<g id="logo">
	<g>
		<path class="st0" d="M41,1h1V0h5v2h-4v6h2V6h-1V4h3v5h-1v1h-4V9h-1V1z"/>
		<path class="st0" d="M48,1h1V0h4v1h1v9h-2V6h-2v4h-2V1z M50,2v2h2V2H50z"/>
		<path class="st0" d="M55,0h2v2h1v1h1V2h1V0h2v10h-2V5h-1v2h-1V5h-1v5h-2V0z"/>
		<path class="st0" d="M63,0h6v2h-4v2h3v2h-3v2h4v2h-6V0z"/>
	</g>
	<g>
		<path class="st0" d="M0,1h1V0h5v2H2v2h3v1h1v4H5v1H0V8h4V6H1V5H0V1z"/>
		<path class="st0" d="M7,0h6v2h-2v8H9V2H7V0z"/>
		<path class="st0" d="M22,0h5v1h1v4h-1v1h-1v1h1v1h1v2h-2V9h-1V8h-1v2h-2V0z M24,4h2V2h-2V4z"/>
		<path class="st0" d="M29,0h6v2h-2v8h-2V2h-2V0z"/>
		<polygon class="st0" points="19,4 19,3 18,3 18,2 16,2 16,1 14,1 14,2 14,3 14,4 14,6 14,7 14,8 14,9 16,9 16,8 18,8 18,7 19,7 
			19,6 21,6 21,4 		"/>
	</g>
</g>
</svg>
